<svg width="32" height="32" viewBox="0 0 32 32" fill="none" xmlns="http://www.w3.org/2000/svg">
  <rect width="32" height="32" rx="6" fill="#3B82F6"/>
  <rect x="6" y="8" width="20" height="16" rx="2" fill="white"/>
  <rect x="8" y="6" width="2" height="4" rx="1" fill="white"/>
  <rect x="22" y="6" width="2" height="4" rx="1" fill="white"/>
  <rect x="10" y="12" width="3" height="2" rx="1" fill="#3B82F6"/>
  <rect x="15" y="12" width="3" height="2" rx="1" fill="#3B82F6"/>
  <rect x="20" y="12" width="3" height="2" rx="1" fill="#3B82F6"/>
  <rect x="10" y="16" width="3" height="2" rx="1" fill="#3B82F6"/>
  <rect x="15" y="16" width="3" height="2" rx="1" fill="#3B82F6"/>
  <rect x="20" y="16" width="3" height="2" rx="1" fill="#3B82F6"/>
  <rect x="10" y="20" width="3" height="2" rx="1" fill="#3B82F6"/>
  <rect x="15" y="20" width="3" height="2" rx="1" fill="#3B82F6"/>
</svg>
